<svg width="451" height="159" viewBox="0 0 451 159" fill="none" xmlns="http://www.w3.org/2000/svg">
<rect x="350.384" y="3.78027" width="7.86133" height="92.4224" fill="black" stroke="black"/>
<path d="M350.617 3.51758L342.391 41.0127" stroke="black" stroke-width="1.5"/>
<path d="M430.157 96.5754L445.582 27.5609L437.482 30.3416L422.529 96.5754L430.157 96.5754Z" fill="black" stroke="black"/>
<mask id="path-4-inside-1_27_281" fill="white">
<path d="M447.709 13.1253C448.205 15.3105 447.76 21.9412 446.249 26.9682L436.968 30.3134C438.819 22.4724 439.989 12.4121 437.86 8.43344C436.854 5.41726 434.283 3.7416 430.926 3.7416C427.57 3.7416 425.556 5.41726 424.549 8.43344C423.039 13.1253 422.703 17.9847 423.374 22.8441C423.878 25.6927 423.308 30.3054 419.616 30.473C416.26 30.8081 414.647 27.5359 414.647 23.6819C414.815 20.6657 414.647 17.6496 414.815 14.6334C415.487 6.25509 420.857 1.39568 429.752 0.892984C440.324 0.390287 445.695 4.2443 447.709 13.1253Z"/>
</mask>
<path d="M447.709 13.1253C448.205 15.3105 447.76 21.9412 446.249 26.9682L436.968 30.3134C438.819 22.4724 439.989 12.4121 437.86 8.43344C436.854 5.41726 434.283 3.7416 430.926 3.7416C427.57 3.7416 425.556 5.41726 424.549 8.43344C423.039 13.1253 422.703 17.9847 423.374 22.8441C423.878 25.6927 423.308 30.3054 419.616 30.473C416.26 30.8081 414.647 27.5359 414.647 23.6819C414.815 20.6657 414.647 17.6496 414.815 14.6334C415.487 6.25509 420.857 1.39568 429.752 0.892984C440.324 0.390287 445.695 4.2443 447.709 13.1253Z" fill="black"/>
<path d="M446.249 26.9682L446.588 27.9089L447.062 27.7382L447.207 27.2559L446.249 26.9682ZM447.709 13.1253L446.733 13.3464L446.734 13.3466L447.709 13.1253ZM429.752 0.892984L429.704 -0.105927L429.695 -0.105423L429.752 0.892984ZM414.815 14.6334L413.818 14.5535L413.818 14.5656L413.817 14.5778L414.815 14.6334ZM414.647 23.6819L413.649 23.6264L413.647 23.6541V23.6819H414.647ZM419.616 30.473L419.571 29.474L419.544 29.4753L419.517 29.478L419.616 30.473ZM423.374 22.8441L422.384 22.9809L422.386 22.9996L422.39 23.0181L423.374 22.8441ZM424.549 8.43344L423.6 8.11675L423.597 8.127L424.549 8.43344ZM437.86 8.43344L436.912 8.75011L436.939 8.83042L436.979 8.90508L437.86 8.43344ZM436.968 30.3134L435.995 30.0837L435.571 31.88L437.307 31.2542L436.968 30.3134ZM447.207 27.2559C447.986 24.6627 448.485 21.6799 448.727 19.0737C448.966 16.5068 448.97 14.1642 448.684 12.9039L446.734 13.3466C446.943 14.2715 446.973 16.337 446.736 18.8884C446.502 21.4006 446.023 24.2467 445.291 26.6804L447.207 27.2559ZM448.684 12.9041C447.642 8.30746 445.694 4.86455 442.507 2.66701C439.34 0.482557 435.103 -0.362573 429.704 -0.105887L429.799 1.89186C434.973 1.64584 438.708 2.47637 441.372 4.31349C444.017 6.13753 445.762 9.06211 446.733 13.3464L448.684 12.9041ZM429.695 -0.105423C425.081 0.155341 421.274 1.55344 418.524 4.07241C415.766 6.5984 414.17 10.1611 413.818 14.5535L415.812 14.7132C416.131 10.7274 417.556 7.67121 419.875 5.54725C422.202 3.41628 425.527 2.13332 429.808 1.89139L429.695 -0.105423ZM413.817 14.5778C413.731 16.1183 413.731 17.6542 413.731 19.1576C413.731 20.6703 413.731 22.1506 413.649 23.6264L415.646 23.7375C415.732 22.197 415.731 20.6611 415.731 19.1576C415.731 17.6449 415.732 16.1646 415.814 14.6889L413.817 14.5778ZM413.647 23.6819C413.647 25.7235 414.071 27.7191 415.036 29.1957C416.038 30.7282 417.623 31.677 419.716 31.4681L419.517 29.478C418.252 29.6042 417.353 29.0844 416.71 28.1011C416.03 27.0618 415.647 25.4943 415.647 23.6819H413.647ZM419.662 31.472C422.045 31.3638 423.384 29.7711 424.011 27.9972C424.625 26.2627 424.632 24.2147 424.359 22.67L422.39 23.0181C422.62 24.3221 422.594 26.0048 422.126 27.3307C421.671 28.6172 420.88 29.4146 419.571 29.474L419.662 31.472ZM424.365 22.7072C423.712 17.9844 424.04 13.2774 425.501 8.73988L423.597 8.127C422.037 12.9731 421.694 17.985 422.384 22.9809L424.365 22.7072ZM425.498 8.75011C425.956 7.37738 426.614 6.39612 427.461 5.75306C428.303 5.11454 429.42 4.7416 430.926 4.7416V2.7416C429.076 2.7416 427.508 3.20649 426.252 4.15984C425.002 5.10866 424.149 6.47332 423.601 8.11677L425.498 8.75011ZM430.926 4.7416C433.91 4.7416 436.059 6.19383 436.912 8.75011L438.809 8.11677C437.649 4.64068 434.656 2.7416 430.926 2.7416V4.7416ZM436.979 8.90508C437.421 9.73206 437.729 10.9567 437.884 12.5264C438.038 14.0805 438.035 15.8984 437.908 17.8606C437.655 21.7846 436.911 26.2034 435.995 30.0837L437.941 30.5431C438.876 26.5825 439.642 22.0506 439.904 17.9895C440.035 15.9592 440.042 14.026 439.874 12.3297C439.708 10.6491 439.364 9.12417 438.742 7.9618L436.979 8.90508ZM437.307 31.2542L446.588 27.9089L445.91 26.0274L436.629 29.3727L437.307 31.2542Z" fill="black" mask="url(#path-4-inside-1_27_281)"/>
<path d="M422.379 96.3276H450.017" stroke="black" stroke-width="1.5"/>
<path d="M401.259 3.51758L380.884 96.3862" stroke="black" stroke-width="1.5"/>
<rect x="214.465" y="1.73535" width="7.86133" height="94.8398" fill="black" stroke="black"/>
<rect x="240.85" y="1.73535" width="7.86133" height="94.8398" fill="black" stroke="black"/>
<path d="M153.778 96.575L133.282 3.55371L140.913 3.55284L161.408 96.575L153.778 96.575Z" fill="black" stroke="black"/>
<path d="M292.375 96.575L271.879 3.55371L279.509 3.55284L300.005 96.575L292.375 96.575Z" fill="black" stroke="black"/>
<rect x="0.5" y="3.78027" width="7.86133" height="92.4224" fill="black" stroke="black"/>
<rect x="28.416" y="3.24707" width="7.86133" height="77.978" fill="black" stroke="black"/>
<path d="M36.3789 42.2363H46.251" stroke="black" stroke-width="1.5"/>
<path d="M91.5747 27.7652C91.5747 6.71501 103.618 2.23779 109.64 2.63045C97.5151 7.99723 98.5726 21.2274 98.5726 27.7652C97.4123 34.6545 106.255 56.8962 110.526 67.0798C114.406 92.9435 97.5939 98.1162 88.7031 97.4696C95.9449 96.1764 100.18 89.9959 101.393 87.0672C108.462 63.1107 91.5747 54.078 91.5747 27.7652Z" fill="black"/>
<path d="M136.447 17.8125L119.208 96.3857" stroke="black" stroke-width="1.5"/>
<path d="M275.044 17.8125L257.805 96.3857" stroke="black" stroke-width="1.5"/>
<path d="M126.139 64.6797C128.643 64.6797 140.744 64.6797 146.481 64.6797" stroke="black" stroke-width="1.5"/>
<path d="M264.735 64.6797C267.239 64.6797 279.34 64.6797 285.078 64.6797" stroke="black" stroke-width="1.5"/>
<path d="M222.508 50.4863H241.107" stroke="black" stroke-width="1.5"/>
<path d="M178.238 79.5647C178.068 82.9557 178.577 86.3467 179.257 89.5682C180.106 93.4679 182.313 96.1807 186.389 96.1807C190.634 96.3502 192.841 93.807 194.2 90.0769C195.728 85.6685 195.389 81.4298 193.86 77.191C190.294 67.6962 184.181 59.2187 179.426 50.4021C175.691 43.4506 171.955 36.499 169.408 28.8692C167.879 23.7827 167.37 18.6962 168.389 13.2706C170.426 4.28446 175.86 0.384811 186.558 0.893461C195.558 1.40211 200.992 6.31907 201.672 14.7966C201.841 17.8485 201.672 20.9004 201.841 23.9523C201.841 27.8519 200.21 31.1629 196.814 30.8238C193.078 30.6543 192.502 25.9869 193.011 23.1045C193.691 18.1876 193.351 13.2706 191.823 8.52322C190.804 5.47132 188.766 3.77581 185.37 3.77581C181.974 3.77581 179.766 5.13222 178.747 8.18412C175.86 16.153 177.219 23.9523 180.445 31.4125C184.86 41.7551 191.143 51.0803 196.747 60.7447C200.992 68.2049 204.558 75.8346 203.879 84.6512C203.2 92.4506 199.125 97.3675 191.313 98.2153C172.804 100.419 167.37 91.4333 169.238 74.6478C169.747 70.5786 172.634 70.5786 175.691 70.7481C179.087 70.9177 178.747 73.2914 178.408 75.4955C178.238 77.191 178.238 78.3779 178.238 79.5647Z" fill="black"/>
<path d="M36.3789 3.28027H51.2275" stroke="black" stroke-width="1.5"/>
<path d="M36.3789 81.1753H51.2275" stroke="black" stroke-width="1.5"/>
<path d="M8.86133 96.2026H33.5303" stroke="black" stroke-width="1.5"/>
<path d="M117.609 145.122C117.609 145.89 117.783 146.556 118.131 147.12C118.479 147.672 118.935 148.092 119.499 148.38C120.075 148.668 120.705 148.812 121.389 148.812C121.989 148.812 122.517 148.734 122.973 148.578C123.429 148.422 123.837 148.218 124.197 147.966C124.557 147.714 124.875 147.444 125.151 147.156V150.432C124.647 150.828 124.095 151.14 123.495 151.368C122.895 151.596 122.133 151.71 121.209 151.71C120.201 151.71 119.271 151.554 118.419 151.242C117.567 150.93 116.835 150.48 116.223 149.892C115.611 149.304 115.137 148.608 114.801 147.804C114.465 147 114.297 146.106 114.297 145.122C114.297 144.138 114.465 143.244 114.801 142.44C115.137 141.636 115.611 140.94 116.223 140.352C116.835 139.764 117.567 139.314 118.419 139.002C119.271 138.69 120.201 138.534 121.209 138.534C122.133 138.534 122.895 138.648 123.495 138.876C124.095 139.104 124.647 139.416 125.151 139.812V143.088C124.875 142.8 124.557 142.53 124.197 142.278C123.837 142.014 123.429 141.81 122.973 141.666C122.517 141.51 121.989 141.432 121.389 141.432C120.705 141.432 120.075 141.576 119.499 141.864C118.935 142.152 118.479 142.572 118.131 143.124C117.783 143.676 117.609 144.342 117.609 145.122ZM133.74 145.122C133.74 145.866 133.884 146.526 134.172 147.102C134.472 147.666 134.886 148.11 135.414 148.434C135.954 148.758 136.584 148.92 137.304 148.92C138.012 148.92 138.63 148.758 139.158 148.434C139.698 148.11 140.112 147.666 140.4 147.102C140.7 146.526 140.85 145.866 140.85 145.122C140.85 144.378 140.706 143.724 140.418 143.16C140.13 142.584 139.722 142.134 139.194 141.81C138.666 141.486 138.036 141.324 137.304 141.324C136.584 141.324 135.954 141.486 135.414 141.81C134.886 142.134 134.472 142.584 134.172 143.16C133.884 143.724 133.74 144.378 133.74 145.122ZM130.518 145.122C130.518 144.15 130.686 143.262 131.022 142.458C131.37 141.654 131.85 140.958 132.462 140.37C133.074 139.782 133.794 139.332 134.622 139.02C135.45 138.696 136.344 138.534 137.304 138.534C138.276 138.534 139.17 138.696 139.986 139.02C140.814 139.332 141.534 139.782 142.146 140.37C142.758 140.958 143.232 141.654 143.568 142.458C143.904 143.262 144.072 144.15 144.072 145.122C144.072 146.094 143.904 146.988 143.568 147.804C143.244 148.62 142.776 149.328 142.164 149.928C141.564 150.528 140.85 150.996 140.022 151.332C139.194 151.656 138.288 151.818 137.304 151.818C136.308 151.818 135.396 151.656 134.568 151.332C133.74 150.996 133.02 150.528 132.408 149.928C131.808 149.328 131.34 148.62 131.004 147.804C130.68 146.988 130.518 146.094 130.518 145.122ZM149.531 138.822H152.573V147.066C152.573 147.702 152.741 148.218 153.077 148.614C153.413 149.01 153.917 149.208 154.589 149.208C155.273 149.208 155.783 149.01 156.119 148.614C156.455 148.218 156.623 147.702 156.623 147.066V138.822H159.665V147.282C159.665 148.074 159.533 148.764 159.269 149.352C159.017 149.94 158.657 150.426 158.189 150.81C157.733 151.182 157.193 151.464 156.569 151.656C155.957 151.848 155.297 151.944 154.589 151.944C153.881 151.944 153.221 151.848 152.609 151.656C151.997 151.464 151.457 151.182 150.989 150.81C150.533 150.426 150.173 149.94 149.909 149.352C149.657 148.764 149.531 148.074 149.531 147.282V138.822ZM168.992 145.716H172.142L176.084 151.422H172.52L168.992 145.716ZM165.842 138.822H168.884V151.422H165.842V138.822ZM167.75 141.396V138.822H170.432C171.512 138.822 172.412 138.996 173.132 139.344C173.852 139.692 174.398 140.178 174.77 140.802C175.142 141.414 175.328 142.128 175.328 142.944C175.328 143.748 175.142 144.462 174.77 145.086C174.398 145.698 173.852 146.178 173.132 146.526C172.412 146.874 171.512 147.048 170.432 147.048H167.75V144.69H170.216C170.624 144.69 170.972 144.63 171.26 144.51C171.56 144.378 171.788 144.192 171.944 143.952C172.1 143.7 172.178 143.4 172.178 143.052C172.178 142.704 172.1 142.41 171.944 142.17C171.788 141.918 171.56 141.726 171.26 141.594C170.972 141.462 170.624 141.396 170.216 141.396H167.75ZM183.688 145.122C183.688 145.89 183.862 146.556 184.21 147.12C184.558 147.672 185.014 148.092 185.578 148.38C186.154 148.668 186.784 148.812 187.468 148.812C188.068 148.812 188.596 148.734 189.052 148.578C189.508 148.422 189.916 148.218 190.276 147.966C190.636 147.714 190.954 147.444 191.23 147.156V150.432C190.726 150.828 190.174 151.14 189.574 151.368C188.974 151.596 188.212 151.71 187.288 151.71C186.28 151.71 185.35 151.554 184.498 151.242C183.646 150.93 182.914 150.48 182.302 149.892C181.69 149.304 181.216 148.608 180.88 147.804C180.544 147 180.376 146.106 180.376 145.122C180.376 144.138 180.544 143.244 180.88 142.44C181.216 141.636 181.69 140.94 182.302 140.352C182.914 139.764 183.646 139.314 184.498 139.002C185.35 138.69 186.28 138.534 187.288 138.534C188.212 138.534 188.974 138.648 189.574 138.876C190.174 139.104 190.726 139.416 191.23 139.812V143.088C190.954 142.8 190.636 142.53 190.276 142.278C189.916 142.014 189.508 141.81 189.052 141.666C188.596 141.51 188.068 141.432 187.468 141.432C186.784 141.432 186.154 141.576 185.578 141.864C185.014 142.152 184.558 142.572 184.21 143.124C183.862 143.676 183.688 144.342 183.688 145.122ZM198.164 146.148V143.412H207.704V146.148H198.164ZM205.778 138.822H208.82V151.422H205.778V138.822ZM197.318 138.822H200.36V151.422H197.318V138.822ZM217.084 151.422V148.92H223.438V151.422H217.084ZM217.084 141.324V138.822H223.438V141.324H217.084ZM217.084 146.022V143.574H223.078V146.022H217.084ZM215.068 138.822H217.984V151.422H215.068V138.822ZM234.788 146.346L237.866 138.822H241.43L234.788 152.214L228.164 138.822H231.71L234.788 146.346ZM248.366 151.422V148.92H254.72V151.422H248.366ZM248.366 141.324V138.822H254.72V141.324H248.366ZM248.366 146.022V143.574H254.36V146.022H248.366ZM246.35 138.822H249.266V151.422H246.35V138.822ZM260.796 138.822H263.838V148.812H268.896V151.422H260.796V138.822ZM282.794 142.458V139.812L288.842 138.588V151.422H285.908V141.684L282.794 142.458ZM295.714 141.864C295.714 141.156 295.906 140.556 296.29 140.064C296.686 139.56 297.202 139.182 297.838 138.93C298.486 138.666 299.194 138.534 299.962 138.534C300.742 138.534 301.45 138.666 302.086 138.93C302.734 139.182 303.25 139.56 303.634 140.064C304.03 140.556 304.228 141.156 304.228 141.864C304.228 142.44 304.102 142.944 303.85 143.376C303.61 143.796 303.28 144.15 302.86 144.438C302.452 144.714 301.996 144.918 301.492 145.05C300.988 145.182 300.478 145.248 299.962 145.248C299.446 145.248 298.936 145.182 298.432 145.05C297.928 144.918 297.472 144.714 297.064 144.438C296.656 144.15 296.326 143.796 296.074 143.376C295.834 142.944 295.714 142.44 295.714 141.864ZM298.576 142.152C298.576 142.44 298.636 142.692 298.756 142.908C298.876 143.124 299.038 143.292 299.242 143.412C299.458 143.532 299.698 143.592 299.962 143.592C300.238 143.592 300.478 143.532 300.682 143.412C300.898 143.292 301.066 143.124 301.186 142.908C301.306 142.692 301.366 142.44 301.366 142.152C301.366 141.876 301.306 141.63 301.186 141.414C301.078 141.186 300.916 141.012 300.7 140.892C300.496 140.772 300.25 140.712 299.962 140.712C299.698 140.712 299.458 140.772 299.242 140.892C299.026 141.012 298.858 141.186 298.738 141.414C298.63 141.63 298.576 141.876 298.576 142.152ZM295.264 148.002C295.264 147.342 295.408 146.778 295.696 146.31C295.984 145.83 296.362 145.446 296.83 145.158C297.298 144.858 297.808 144.642 298.36 144.51C298.912 144.366 299.446 144.294 299.962 144.294C300.478 144.294 301.012 144.366 301.564 144.51C302.116 144.642 302.626 144.858 303.094 145.158C303.574 145.446 303.958 145.83 304.246 146.31C304.534 146.778 304.678 147.342 304.678 148.002C304.678 148.578 304.552 149.094 304.3 149.55C304.048 150.006 303.7 150.396 303.256 150.72C302.812 151.044 302.308 151.29 301.744 151.458C301.18 151.626 300.586 151.71 299.962 151.71C299.35 151.71 298.762 151.626 298.198 151.458C297.634 151.29 297.13 151.044 296.686 150.72C296.242 150.396 295.894 150.006 295.642 149.55C295.39 149.094 295.264 148.578 295.264 148.002ZM298.288 147.534C298.288 147.906 298.36 148.218 298.504 148.47C298.66 148.722 298.864 148.914 299.116 149.046C299.38 149.178 299.662 149.244 299.962 149.244C300.274 149.244 300.556 149.178 300.808 149.046C301.072 148.914 301.276 148.722 301.42 148.47C301.576 148.218 301.654 147.906 301.654 147.534C301.654 147.234 301.576 146.958 301.42 146.706C301.276 146.454 301.072 146.256 300.808 146.112C300.556 145.968 300.274 145.896 299.962 145.896C299.662 145.896 299.38 145.968 299.116 146.112C298.864 146.256 298.66 146.454 298.504 146.706C298.36 146.958 298.288 147.234 298.288 147.534ZM320.103 147.39C320.103 148.134 319.953 148.776 319.653 149.316C319.365 149.856 318.969 150.3 318.465 150.648C317.973 150.996 317.427 151.254 316.827 151.422C316.239 151.578 315.639 151.656 315.027 151.656C314.259 151.656 313.563 151.578 312.939 151.422C312.315 151.278 311.763 151.086 311.283 150.846C310.803 150.594 310.365 150.318 309.969 150.018L311.157 147.516C311.505 147.804 311.859 148.05 312.219 148.254C312.591 148.446 312.963 148.602 313.335 148.722C313.707 148.83 314.043 148.884 314.343 148.884C314.859 148.884 315.297 148.818 315.657 148.686C316.017 148.554 316.293 148.35 316.485 148.074C316.677 147.798 316.773 147.462 316.773 147.066C316.773 146.646 316.653 146.31 316.413 146.058C316.185 145.794 315.885 145.602 315.513 145.482C315.153 145.362 314.763 145.302 314.343 145.302C314.019 145.302 313.659 145.326 313.263 145.374C312.879 145.41 312.477 145.488 312.057 145.608C311.649 145.716 311.229 145.878 310.797 146.094L312.561 138.822H319.833V141.45H314.793L314.073 143.7C314.409 143.544 314.757 143.436 315.117 143.376C315.489 143.304 315.873 143.268 316.269 143.268C316.941 143.268 317.565 143.43 318.141 143.754C318.729 144.078 319.203 144.546 319.563 145.158C319.923 145.77 320.103 146.514 320.103 147.39ZM328.069 145.122C328.069 145.71 328.123 146.25 328.231 146.742C328.339 147.222 328.495 147.636 328.699 147.984C328.903 148.32 329.143 148.584 329.419 148.776C329.707 148.956 330.025 149.046 330.373 149.046C330.721 149.046 331.033 148.956 331.309 148.776C331.597 148.584 331.843 148.32 332.047 147.984C332.251 147.636 332.407 147.222 332.515 146.742C332.623 146.25 332.677 145.71 332.677 145.122C332.677 144.534 332.623 144 332.515 143.52C332.407 143.028 332.251 142.614 332.047 142.278C331.843 141.93 331.597 141.666 331.309 141.486C331.033 141.294 330.721 141.198 330.373 141.198C330.025 141.198 329.707 141.294 329.419 141.486C329.143 141.666 328.903 141.93 328.699 142.278C328.495 142.614 328.339 143.028 328.231 143.52C328.123 144 328.069 144.534 328.069 145.122ZM325.135 145.122C325.135 143.754 325.351 142.584 325.783 141.612C326.227 140.64 326.845 139.896 327.637 139.38C328.429 138.852 329.341 138.588 330.373 138.588C331.453 138.588 332.383 138.852 333.163 139.38C333.943 139.896 334.543 140.64 334.963 141.612C335.395 142.584 335.611 143.754 335.611 145.122C335.611 146.49 335.395 147.66 334.963 148.632C334.543 149.604 333.943 150.354 333.163 150.882C332.383 151.398 331.453 151.656 330.373 151.656C329.341 151.656 328.429 151.398 327.637 150.882C326.845 150.354 326.227 149.604 325.783 148.632C325.351 147.66 325.135 146.49 325.135 145.122Z" fill="black"/>
<path d="M193.063 118.981H255.955" stroke="black" stroke-width="2"/>
</svg>
