<svg width="301" height="158" viewBox="0 0 301 158" fill="none" xmlns="http://www.w3.org/2000/svg">
<path d="M36.6025 2.4707H51.4512" stroke="black" stroke-width="1.5"/>
<path d="M36.6025 80.3657H51.4512" stroke="black" stroke-width="1.5"/>
<path d="M9.08496 95.3931H33.7539" stroke="black" stroke-width="1.5"/>
<rect x="214.688" y="0.925781" width="7.86133" height="94.8398" fill="black" stroke="black"/>
<rect x="241.073" y="0.925781" width="7.86133" height="94.8398" fill="black" stroke="black"/>
<path d="M154.002 95.7654L133.506 2.74414L141.136 2.74327L161.632 95.7654L154.002 95.7654Z" fill="black" stroke="black"/>
<path d="M292.598 95.7654L272.103 2.74414L279.733 2.74327L300.228 95.7654L292.598 95.7654Z" fill="black" stroke="black"/>
<rect x="0.723633" y="2.9707" width="7.86133" height="92.4224" fill="black" stroke="black"/>
<rect x="28.6396" y="2.4375" width="7.86133" height="77.978" fill="black" stroke="black"/>
<path d="M36.6025 41.4268H46.4746" stroke="black" stroke-width="1.5"/>
<path d="M91.7984 26.9556C91.7984 5.90544 103.842 1.42822 109.864 1.82088C97.7387 7.18766 98.7963 20.4179 98.7963 26.9556C97.6359 33.8449 106.479 56.0867 110.75 66.2703C114.629 92.1339 97.8175 97.3066 88.9268 96.66C96.1686 95.3669 100.404 89.1863 101.616 86.2577C108.685 62.3011 91.7984 53.2684 91.7984 26.9556Z" fill="black"/>
<path d="M136.671 17.0029L119.432 95.5762" stroke="black" stroke-width="1.5"/>
<path d="M275.268 17.0029L258.028 95.5762" stroke="black" stroke-width="1.5"/>
<path d="M126.362 63.8702C128.866 63.8701 140.967 63.8701 146.705 63.8702" stroke="black" stroke-width="1.5"/>
<path d="M264.959 63.8702C267.463 63.8701 279.564 63.8701 285.302 63.8702" stroke="black" stroke-width="1.5"/>
<path d="M222.731 49.6768H241.331" stroke="black" stroke-width="1.5"/>
<path d="M178.461 78.7552C178.291 82.1462 178.801 85.5372 179.48 88.7587C180.329 92.6583 182.537 95.3711 186.612 95.3711C190.857 95.5407 193.065 92.9974 194.423 89.2673C195.952 84.859 195.612 80.6203 194.084 76.3815C190.518 66.8867 184.405 58.4092 179.65 49.5926C175.914 42.641 172.178 35.6895 169.631 28.0597C168.103 22.9732 167.593 17.8867 168.612 12.4611C170.65 3.47493 176.084 -0.424723 186.782 0.0839275C195.782 0.592578 201.216 5.50953 201.895 13.987C202.065 17.0389 201.895 20.0908 202.065 23.1428C202.065 27.0424 200.434 30.3534 197.037 30.0143C193.301 29.8447 192.725 25.1774 193.235 22.295C193.914 17.378 193.574 12.4611 192.046 7.71369C191.027 4.66178 188.989 2.96628 185.593 2.96628C182.197 2.96628 179.989 4.32268 178.971 7.37458C176.084 15.3434 177.442 23.1427 180.669 30.603C185.084 40.9455 191.367 50.2708 196.971 59.9351C201.216 67.3953 204.782 75.0251 204.103 83.8417C203.423 91.641 199.348 96.558 191.537 97.4057C173.027 99.6099 167.593 90.6237 169.461 73.8383C169.971 69.7691 172.857 69.769 175.914 69.9386C179.31 70.1081 178.971 72.4819 178.631 74.686C178.461 76.3815 178.461 77.5684 178.461 78.7552Z" fill="black"/>
<path d="M43.6371 144.312C43.6371 145.08 43.8111 145.746 44.1591 146.31C44.5071 146.862 44.9631 147.282 45.5271 147.57C46.1031 147.858 46.7331 148.002 47.4171 148.002C48.0171 148.002 48.5451 147.924 49.0011 147.768C49.4571 147.612 49.8651 147.408 50.2251 147.156C50.5851 146.904 50.9031 146.634 51.1791 146.346V149.622C50.6751 150.018 50.1231 150.33 49.5231 150.558C48.9231 150.786 48.1611 150.9 47.2371 150.9C46.2291 150.9 45.2991 150.744 44.4471 150.432C43.5951 150.12 42.8631 149.67 42.2511 149.082C41.6391 148.494 41.1651 147.798 40.8291 146.994C40.4931 146.19 40.3251 145.296 40.3251 144.312C40.3251 143.328 40.4931 142.434 40.8291 141.63C41.1651 140.826 41.6391 140.13 42.2511 139.542C42.8631 138.954 43.5951 138.504 44.4471 138.192C45.2991 137.88 46.2291 137.724 47.2371 137.724C48.1611 137.724 48.9231 137.838 49.5231 138.066C50.1231 138.294 50.6751 138.606 51.1791 139.002V142.278C50.9031 141.99 50.5851 141.72 50.2251 141.468C49.8651 141.204 49.4571 141 49.0011 140.856C48.5451 140.7 48.0171 140.622 47.4171 140.622C46.7331 140.622 46.1031 140.766 45.5271 141.054C44.9631 141.342 44.5071 141.762 44.1591 142.314C43.8111 142.866 43.6371 143.532 43.6371 144.312ZM59.7682 144.312C59.7682 145.056 59.9122 145.716 60.2002 146.292C60.5002 146.856 60.9142 147.3 61.4422 147.624C61.9822 147.948 62.6122 148.11 63.3322 148.11C64.0402 148.11 64.6582 147.948 65.1862 147.624C65.7262 147.3 66.1402 146.856 66.4282 146.292C66.7282 145.716 66.8782 145.056 66.8782 144.312C66.8782 143.568 66.7342 142.914 66.4462 142.35C66.1582 141.774 65.7502 141.324 65.2222 141C64.6942 140.676 64.0642 140.514 63.3322 140.514C62.6122 140.514 61.9822 140.676 61.4422 141C60.9142 141.324 60.5002 141.774 60.2002 142.35C59.9122 142.914 59.7682 143.568 59.7682 144.312ZM56.5462 144.312C56.5462 143.34 56.7142 142.452 57.0502 141.648C57.3982 140.844 57.8782 140.148 58.4902 139.56C59.1022 138.972 59.8222 138.522 60.6502 138.21C61.4782 137.886 62.3722 137.724 63.3322 137.724C64.3042 137.724 65.1982 137.886 66.0142 138.21C66.8422 138.522 67.5622 138.972 68.1742 139.56C68.7862 140.148 69.2602 140.844 69.5962 141.648C69.9322 142.452 70.1002 143.34 70.1002 144.312C70.1002 145.284 69.9322 146.178 69.5962 146.994C69.2722 147.81 68.8042 148.518 68.1922 149.118C67.5922 149.718 66.8782 150.186 66.0502 150.522C65.2222 150.846 64.3162 151.008 63.3322 151.008C62.3362 151.008 61.4242 150.846 60.5962 150.522C59.7682 150.186 59.0482 149.718 58.4362 149.118C57.8362 148.518 57.3682 147.81 57.0322 146.994C56.7082 146.178 56.5462 145.284 56.5462 144.312ZM75.5594 138.012H78.6014V146.256C78.6014 146.892 78.7694 147.408 79.1054 147.804C79.4414 148.2 79.9454 148.398 80.6174 148.398C81.3014 148.398 81.8114 148.2 82.1474 147.804C82.4834 147.408 82.6514 146.892 82.6514 146.256V138.012H85.6934V146.472C85.6934 147.264 85.5614 147.954 85.2974 148.542C85.0454 149.13 84.6854 149.616 84.2174 150C83.7614 150.372 83.2214 150.654 82.5974 150.846C81.9854 151.038 81.3254 151.134 80.6174 151.134C79.9094 151.134 79.2494 151.038 78.6374 150.846C78.0254 150.654 77.4854 150.372 77.0174 150C76.5614 149.616 76.2014 149.13 75.9374 148.542C75.6854 147.954 75.5594 147.264 75.5594 146.472V138.012ZM95.0205 144.906H98.1705L102.112 150.612H98.5485L95.0205 144.906ZM91.8705 138.012H94.9125V150.612H91.8705V138.012ZM93.7785 140.586V138.012H96.4605C97.5405 138.012 98.4405 138.186 99.1605 138.534C99.8805 138.882 100.426 139.368 100.798 139.992C101.17 140.604 101.356 141.318 101.356 142.134C101.356 142.938 101.17 143.652 100.798 144.276C100.426 144.888 99.8805 145.368 99.1605 145.716C98.4405 146.064 97.5405 146.238 96.4605 146.238H93.7785V143.88H96.2445C96.6525 143.88 97.0005 143.82 97.2885 143.7C97.5885 143.568 97.8165 143.382 97.9725 143.142C98.1285 142.89 98.2065 142.59 98.2065 142.242C98.2065 141.894 98.1285 141.6 97.9725 141.36C97.8165 141.108 97.5885 140.916 97.2885 140.784C97.0005 140.652 96.6525 140.586 96.2445 140.586H93.7785ZM109.717 144.312C109.717 145.08 109.891 145.746 110.239 146.31C110.587 146.862 111.043 147.282 111.607 147.57C112.183 147.858 112.813 148.002 113.497 148.002C114.097 148.002 114.625 147.924 115.081 147.768C115.537 147.612 115.945 147.408 116.305 147.156C116.665 146.904 116.983 146.634 117.259 146.346V149.622C116.755 150.018 116.203 150.33 115.603 150.558C115.003 150.786 114.241 150.9 113.317 150.9C112.309 150.9 111.379 150.744 110.527 150.432C109.675 150.12 108.943 149.67 108.331 149.082C107.719 148.494 107.245 147.798 106.909 146.994C106.573 146.19 106.405 145.296 106.405 144.312C106.405 143.328 106.573 142.434 106.909 141.63C107.245 140.826 107.719 140.13 108.331 139.542C108.943 138.954 109.675 138.504 110.527 138.192C111.379 137.88 112.309 137.724 113.317 137.724C114.241 137.724 115.003 137.838 115.603 138.066C116.203 138.294 116.755 138.606 117.259 139.002V142.278C116.983 141.99 116.665 141.72 116.305 141.468C115.945 141.204 115.537 141 115.081 140.856C114.625 140.7 114.097 140.622 113.497 140.622C112.813 140.622 112.183 140.766 111.607 141.054C111.043 141.342 110.587 141.762 110.239 142.314C109.891 142.866 109.717 143.532 109.717 144.312ZM124.192 145.338V142.602H133.732V145.338H124.192ZM131.806 138.012H134.848V150.612H131.806V138.012ZM123.346 138.012H126.388V150.612H123.346V138.012ZM143.112 150.612V148.11H149.466V150.612H143.112ZM143.112 140.514V138.012H149.466V140.514H143.112ZM143.112 145.212V142.764H149.106V145.212H143.112ZM141.096 138.012H144.012V150.612H141.096V138.012ZM160.816 145.536L163.894 138.012H167.458L160.816 151.404L154.192 138.012H157.738L160.816 145.536ZM174.394 150.612V148.11H180.748V150.612H174.394ZM174.394 140.514V138.012H180.748V140.514H174.394ZM174.394 145.212V142.764H180.388V145.212H174.394ZM172.378 138.012H175.294V150.612H172.378V138.012ZM186.824 138.012H189.866V148.002H194.924V150.612H186.824V138.012ZM208.822 141.648V139.002L214.87 137.778V150.612H211.936V140.874L208.822 141.648ZM221.742 141.054C221.742 140.346 221.934 139.746 222.318 139.254C222.714 138.75 223.23 138.372 223.866 138.12C224.514 137.856 225.222 137.724 225.99 137.724C226.77 137.724 227.478 137.856 228.114 138.12C228.762 138.372 229.278 138.75 229.662 139.254C230.058 139.746 230.256 140.346 230.256 141.054C230.256 141.63 230.13 142.134 229.878 142.566C229.638 142.986 229.308 143.34 228.888 143.628C228.48 143.904 228.024 144.108 227.52 144.24C227.016 144.372 226.506 144.438 225.99 144.438C225.474 144.438 224.964 144.372 224.46 144.24C223.956 144.108 223.5 143.904 223.092 143.628C222.684 143.34 222.354 142.986 222.102 142.566C221.862 142.134 221.742 141.63 221.742 141.054ZM224.604 141.342C224.604 141.63 224.664 141.882 224.784 142.098C224.904 142.314 225.066 142.482 225.27 142.602C225.486 142.722 225.726 142.782 225.99 142.782C226.266 142.782 226.506 142.722 226.71 142.602C226.926 142.482 227.094 142.314 227.214 142.098C227.334 141.882 227.394 141.63 227.394 141.342C227.394 141.066 227.334 140.82 227.214 140.604C227.106 140.376 226.944 140.202 226.728 140.082C226.524 139.962 226.278 139.902 225.99 139.902C225.726 139.902 225.486 139.962 225.27 140.082C225.054 140.202 224.886 140.376 224.766 140.604C224.658 140.82 224.604 141.066 224.604 141.342ZM221.292 147.192C221.292 146.532 221.436 145.968 221.724 145.5C222.012 145.02 222.39 144.636 222.858 144.348C223.326 144.048 223.836 143.832 224.388 143.7C224.94 143.556 225.474 143.484 225.99 143.484C226.506 143.484 227.04 143.556 227.592 143.7C228.144 143.832 228.654 144.048 229.122 144.348C229.602 144.636 229.986 145.02 230.274 145.5C230.562 145.968 230.706 146.532 230.706 147.192C230.706 147.768 230.58 148.284 230.328 148.74C230.076 149.196 229.728 149.586 229.284 149.91C228.84 150.234 228.336 150.48 227.772 150.648C227.208 150.816 226.614 150.9 225.99 150.9C225.378 150.9 224.79 150.816 224.226 150.648C223.662 150.48 223.158 150.234 222.714 149.91C222.27 149.586 221.922 149.196 221.67 148.74C221.418 148.284 221.292 147.768 221.292 147.192ZM224.316 146.724C224.316 147.096 224.388 147.408 224.532 147.66C224.688 147.912 224.892 148.104 225.144 148.236C225.408 148.368 225.69 148.434 225.99 148.434C226.302 148.434 226.584 148.368 226.836 148.236C227.1 148.104 227.304 147.912 227.448 147.66C227.604 147.408 227.682 147.096 227.682 146.724C227.682 146.424 227.604 146.148 227.448 145.896C227.304 145.644 227.1 145.446 226.836 145.302C226.584 145.158 226.302 145.086 225.99 145.086C225.69 145.086 225.408 145.158 225.144 145.302C224.892 145.446 224.688 145.644 224.532 145.896C224.388 146.148 224.316 146.424 224.316 146.724ZM246.132 146.58C246.132 147.324 245.982 147.966 245.682 148.506C245.394 149.046 244.998 149.49 244.494 149.838C244.002 150.186 243.456 150.444 242.856 150.612C242.268 150.768 241.668 150.846 241.056 150.846C240.288 150.846 239.592 150.768 238.968 150.612C238.344 150.468 237.792 150.276 237.312 150.036C236.832 149.784 236.394 149.508 235.998 149.208L237.186 146.706C237.534 146.994 237.888 147.24 238.248 147.444C238.62 147.636 238.992 147.792 239.364 147.912C239.736 148.02 240.072 148.074 240.372 148.074C240.888 148.074 241.326 148.008 241.686 147.876C242.046 147.744 242.322 147.54 242.514 147.264C242.706 146.988 242.802 146.652 242.802 146.256C242.802 145.836 242.682 145.5 242.442 145.248C242.214 144.984 241.914 144.792 241.542 144.672C241.182 144.552 240.792 144.492 240.372 144.492C240.048 144.492 239.688 144.516 239.292 144.564C238.908 144.6 238.506 144.678 238.086 144.798C237.678 144.906 237.258 145.068 236.826 145.284L238.59 138.012H245.862V140.64H240.822L240.102 142.89C240.438 142.734 240.786 142.626 241.146 142.566C241.518 142.494 241.902 142.458 242.298 142.458C242.97 142.458 243.594 142.62 244.17 142.944C244.758 143.268 245.232 143.736 245.592 144.348C245.952 144.96 246.132 145.704 246.132 146.58ZM254.097 144.312C254.097 144.9 254.151 145.44 254.259 145.932C254.367 146.412 254.523 146.826 254.727 147.174C254.931 147.51 255.171 147.774 255.447 147.966C255.735 148.146 256.053 148.236 256.401 148.236C256.749 148.236 257.061 148.146 257.337 147.966C257.625 147.774 257.871 147.51 258.075 147.174C258.279 146.826 258.435 146.412 258.543 145.932C258.651 145.44 258.705 144.9 258.705 144.312C258.705 143.724 258.651 143.19 258.543 142.71C258.435 142.218 258.279 141.804 258.075 141.468C257.871 141.12 257.625 140.856 257.337 140.676C257.061 140.484 256.749 140.388 256.401 140.388C256.053 140.388 255.735 140.484 255.447 140.676C255.171 140.856 254.931 141.12 254.727 141.468C254.523 141.804 254.367 142.218 254.259 142.71C254.151 143.19 254.097 143.724 254.097 144.312ZM251.163 144.312C251.163 142.944 251.379 141.774 251.811 140.802C252.255 139.83 252.873 139.086 253.665 138.57C254.457 138.042 255.369 137.778 256.401 137.778C257.481 137.778 258.411 138.042 259.191 138.57C259.971 139.086 260.571 139.83 260.991 140.802C261.423 141.774 261.639 142.944 261.639 144.312C261.639 145.68 261.423 146.85 260.991 147.822C260.571 148.794 259.971 149.544 259.191 150.072C258.411 150.588 257.481 150.846 256.401 150.846C255.369 150.846 254.457 150.588 253.665 150.072C252.873 149.544 252.255 148.794 251.811 147.822C251.379 146.85 251.163 145.68 251.163 144.312Z" fill="black"/>
<path d="M119.092 118.171H181.983" stroke="black" stroke-width="2"/>
</svg>
